<?xml version="1.0" standalone="no"?>
<!DOCTYPE svg PUBLIC "-//W3C//DTD SVG 20010904//EN"
 "http://www.w3.org/TR/2001/REC-SVG-20010904/DTD/svg10.dtd">
<svg version="1.0" xmlns="http://www.w3.org/2000/svg"
 width="3000.000000pt" height="3000.000000pt" viewBox="0 0 3000.000000 3000.000000"
 preserveAspectRatio="xMidYMid meet">

<g transform="translate(0.000000,3000.000000) scale(0.100000,-0.100000)"
fill="#000000" stroke="none">
<path d="M7140 18360 c-163 -20 -332 -58 -480 -108 -74 -25 -188 -70 -199 -78
-2 -2 29 -36 68 -76 193 -198 323 -444 383 -721 31 -146 31 -418 0 -564 -111
-515 -473 -924 -966 -1088 -177 -59 -249 -70 -461 -70 -169 0 -244 8 -327 31
-17 5 -18 -48 -18 -1023 0 -611 4 -1073 10 -1138 79 -857 645 -1597 1454
-1899 388 -146 851 -177 1271 -86 227 49 529 175 720 300 498 327 842 816 975
1384 57 245 55 192 55 1691 0 1477 1 1452 -51 1694 -73 341 -243 687 -472 961
-339 406 -811 677 -1342 770 -141 25 -486 36 -620 20z"/>
<path d="M22305 18358 c-129 -14 -316 -55 -442 -97 -119 -39 -373 -148 -373
-160 0 -3 25 -35 56 -71 160 -188 270 -418 321 -667 14 -67 18 -134 17 -278 0
-168 -3 -203 -26 -301 -48 -204 -141 -404 -264 -566 -121 -161 -340 -338 -528
-427 -192 -92 -354 -130 -589 -138 l-168 -6 4 -1056 c3 -1021 4 -1060 25
-1189 81 -508 309 -948 667 -1290 333 -318 721 -513 1185 -597 146 -27 482
-32 651 -10 597 76 1150 396 1503 870 103 138 149 212 219 351 122 244 200
513 227 783 14 142 14 2703 0 2842 -41 406 -198 804 -446 1136 -72 96 -253
284 -355 368 -332 278 -761 458 -1201 505 -115 12 -370 11 -483 -2z"/>
</g>
</svg>
