<svg id="svg" version="1.1" xmlns="http://www.w3.org/2000/svg" xmlns:xlink="http://www.w3.org/1999/xlink" width="400" height="400" viewBox="0, 0, 400,400"><g id="svgg"><path id="path0" d="M85.468 118.840 C 55.029 120.265,30.129 143.488,26.059 174.250 C 25.587 177.818,25.583 223.356,26.055 226.833 C 32.263 272.606,81.878 296.796,121.305 273.274 C 138.618 262.945,150.128 244.326,151.661 224.167 C 151.890 221.161,151.892 180.024,151.663 177.030 C 149.290 145.926,123.400 120.282,93.000 118.926 C 91.763 118.871,90.188 118.799,89.500 118.768 C 88.813 118.736,86.998 118.769,85.468 118.840 M307.083 118.856 C 276.194 120.260,250.837 144.575,247.627 175.867 C 247.317 178.888,247.325 222.386,247.637 225.333 C 251.746 264.269,288.941 290.137,326.602 280.253 C 351.720 273.660,369.888 252.645,373.215 226.333 C 373.742 222.162,373.795 179.477,373.277 175.250 C 369.111 141.196,341.075 117.311,307.083 118.856 M101.671 155.175 C 115.320 156.862,125.401 166.389,128.026 180.083 C 128.206 181.019,128.250 185.168,128.250 201.000 L 128.250 220.750 127.864 222.654 C 122.198 250.637,84.329 255.751,71.626 230.250 C 68.685 224.346,68.500 222.842,68.500 204.805 L 68.500 190.794 68.958 190.891 C 87.499 194.785,100.060 172.680,87.172 158.836 C 86.619 158.242,86.167 157.732,86.167 157.702 C 86.167 157.180,92.127 155.541,95.583 155.112 C 96.699 154.973,100.348 155.011,101.671 155.175 M305.750 155.411 C 318.771 157.770,328.721 168.020,330.427 180.830 C 330.770 183.411,330.769 218.430,330.425 221.013 C 329.108 230.909,322.773 239.607,313.750 243.911 C 295.085 252.814,273.355 240.785,271.008 220.250 C 270.904 219.340,270.836 213.340,270.836 205.000 L 270.836 191.250 272.876 191.235 C 288.903 191.115,297.620 172.305,287.425 159.843 C 286.280 158.444,286.173 158.687,288.375 157.696 C 291.304 156.378,293.795 155.701,297.917 155.101 C 299.018 154.941,304.312 155.150,305.750 155.411 " stroke="none" fill="#fbfbfb" fill-rule="evenodd"></path><path id="path1" d="M0.008 70.375 L 0.016 140.750 1.564 137.583 C 5.868 128.780,11.186 121.189,18.041 114.067 L 19.500 112.551 19.500 109.392 C 19.500 97.852,22.316 87.138,27.929 77.316 C 31.262 71.486,38.502 69.286,44.405 72.311 C 46.785 73.530,46.391 73.131,58.318 86.410 C 60.649 89.005,61.454 89.660,61.257 88.804 C 59.851 82.706,61.256 68.840,64.140 60.333 C 68.259 48.188,72.230 43.866,78.961 44.204 C 83.545 44.434,82.148 43.233,106.250 67.664 C 109.642 71.101,115.195 76.727,118.591 80.165 C 121.986 83.604,127.799 89.489,131.507 93.245 C 154.843 116.878,155.537 117.549,159.365 120.218 C 182.690 136.481,216.304 136.092,240.898 119.275 C 246.691 115.314,248.339 113.736,276.421 85.250 C 311.555 49.611,314.644 46.531,316.083 45.698 C 320.322 43.245,325.370 43.744,328.844 46.961 C 333.418 51.196,338.064 64.171,339.003 75.333 C 339.318 79.084,339.146 87.676,338.727 89.057 C 338.475 89.889,339.629 88.715,345.663 82.000 C 355.020 71.586,356.142 70.825,361.803 71.043 C 367.039 71.244,370.141 73.499,373.208 79.333 C 378.138 88.712,380.540 98.662,380.526 109.657 L 380.521 113.397 382.035 114.980 C 388.741 121.995,394.886 131.172,398.844 140.083 C 399.414 141.367,399.907 142.448,399.940 142.486 C 399.973 142.524,400.000 110.481,400.000 71.278 L 400.000 0.000 200.000 0.000 L 0.000 0.000 0.008 70.375 M119.493 163.708 C 119.902 164.144,120.258 164.500,120.285 164.500 C 120.410 164.500,120.278 164.350,119.542 163.660 L 118.750 162.917 119.493 163.708 M321.333 163.219 C 321.333 163.248,321.577 163.491,321.875 163.760 L 322.417 164.250 321.927 163.708 C 321.471 163.203,321.333 163.090,321.333 163.219 M86.744 185.708 L 85.917 186.583 86.792 185.756 C 87.605 184.988,87.743 184.833,87.619 184.833 C 87.592 184.833,87.199 185.227,86.744 185.708 M77.160 238.042 C 77.568 238.477,77.925 238.833,77.951 238.833 C 78.077 238.833,77.944 238.684,77.208 237.993 L 76.417 237.250 77.160 238.042 M279.583 238.167 C 280.035 238.625,280.442 239.000,280.487 239.000 C 280.533 239.000,280.201 238.625,279.750 238.167 C 279.299 237.708,278.892 237.333,278.846 237.333 C 278.800 237.333,279.132 237.708,279.583 238.167 M399.344 259.875 C 388.034 287.908,359.503 309.542,328.311 313.736 C 291.430 318.695,257.092 303.438,237.278 273.286 C 236.569 272.207,235.901 271.131,235.794 270.897 C 235.632 270.541,235.521 270.487,235.113 270.569 C 234.844 270.623,234.570 270.667,234.504 270.667 C 234.437 270.667,234.336 272.260,234.279 274.208 C 233.528 299.993,207.346 315.880,184.500 304.413 C 172.751 298.517,165.667 286.669,165.667 272.918 L 165.667 270.706 165.248 270.626 C 164.883 270.556,164.753 270.674,164.221 271.564 C 152.224 291.641,130.305 307.237,106.833 312.397 C 93.636 315.298,76.601 315.327,63.667 312.472 C 35.435 306.239,12.444 287.469,0.213 260.667 C 0.070 260.354,0.020 277.649,0.011 330.125 L 0.000 400.000 200.000 400.000 L 400.000 400.000 400.000 329.250 C 400.000 290.337,399.977 258.500,399.949 258.500 C 399.922 258.500,399.649 259.119,399.344 259.875 " stroke="none" fill="#7ccc04" fill-rule="evenodd"></path><path id="path2" d="M95.432 155.183 C 92.981 155.442,90.305 156.071,87.917 156.951 C 85.954 157.674,86.005 157.526,87.254 158.874 C 100.126 172.777,87.549 194.795,68.958 190.903 L 68.500 190.807 68.500 204.493 C 68.500 218.496,68.552 219.923,69.178 223.036 C 71.378 233.972,79.886 242.965,90.750 245.835 C 107.571 250.279,124.378 239.712,127.862 222.500 L 128.250 220.583 128.250 201.000 L 128.250 181.417 127.870 179.500 C 124.816 164.097,110.769 153.567,95.432 155.183 M298.417 155.112 C 294.718 155.423,289.930 156.778,287.263 158.269 L 286.491 158.700 287.041 159.308 C 291.991 164.788,293.254 173.428,290.084 180.125 C 286.800 187.064,280.063 191.327,272.375 191.332 L 270.833 191.333 270.833 204.625 C 270.834 223.728,271.367 226.841,275.755 233.333 C 291.318 256.363,326.819 248.211,330.409 220.783 C 330.727 218.355,330.797 184.506,330.489 181.702 C 328.738 165.704,314.347 153.773,298.417 155.112 " stroke="none" fill="#4c4c4c" fill-rule="evenodd"></path><path id="path3" d="M197.833 227.672 C 177.129 228.793,159.011 242.481,153.677 261.030 C 152.113 266.467,152.278 268.508,154.296 268.720 C 154.821 268.776,156.262 269.005,157.500 269.230 C 158.737 269.455,160.875 269.836,162.250 270.077 C 163.625 270.318,164.956 270.555,165.208 270.604 L 165.667 270.693 165.667 272.912 C 165.667 286.669,172.749 298.516,184.500 304.413 C 207.346 315.880,233.528 299.993,234.279 274.208 C 234.336 272.260,234.411 270.667,234.445 270.667 C 234.480 270.667,237.035 270.217,240.125 269.667 C 243.214 269.117,245.944 268.667,246.192 268.667 C 249.246 268.667,245.988 256.944,240.710 248.939 C 231.330 234.714,215.234 226.730,197.833 227.672 " stroke="none" fill="#f9b00a" fill-rule="evenodd"></path><path id="path4" d="M75.789 44.418 C 70.845 45.666,67.620 50.072,64.140 60.333 C 61.256 68.840,59.851 82.706,61.257 88.804 C 61.454 89.660,60.649 89.005,58.318 86.410 C 46.391 73.131,46.785 73.530,44.405 72.311 C 38.502 69.286,31.262 71.486,27.929 77.316 C 22.316 87.138,19.500 97.852,19.500 109.392 L 19.500 112.551 18.041 114.067 C 11.161 121.215,5.811 128.860,1.556 137.621 L -0.000 140.825 0.000 200.475 C 0.000 252.873,0.030 260.198,0.248 260.719 C 12.588 290.252,43.566 312.032,76.500 314.328 C 109.210 316.609,137.206 305.302,156.752 281.917 C 159.870 278.186,165.215 270.500,164.691 270.500 C 164.598 270.500,163.523 270.319,162.303 270.098 C 161.082 269.877,158.996 269.499,157.667 269.259 C 156.337 269.018,154.821 268.776,154.296 268.721 C 152.278 268.508,152.113 266.467,153.677 261.030 C 159.598 240.439,180.892 226.310,203.957 227.669 C 224.208 228.862,241.865 243.296,246.765 262.664 C 247.718 266.432,247.508 268.667,246.200 268.667 C 245.560 268.667,235.943 270.368,235.776 270.511 C 235.597 270.664,235.777 270.996,237.311 273.333 C 257.050 303.414,291.459 318.691,328.311 313.736 C 359.548 309.536,387.534 288.332,399.318 259.939 L 400.000 258.295 400.000 200.478 L 400.000 142.662 398.904 140.206 C 394.845 131.108,388.774 122.029,382.035 114.980 L 380.521 113.397 380.526 109.657 C 380.540 98.662,378.138 88.712,373.208 79.333 C 370.141 73.499,367.039 71.244,361.803 71.043 C 356.142 70.825,355.020 71.586,345.663 82.000 C 339.629 88.715,338.475 89.889,338.727 89.057 C 339.146 87.676,339.318 79.084,339.003 75.333 C 338.064 64.171,333.418 51.196,328.844 46.961 C 325.370 43.744,320.322 43.245,316.083 45.698 C 314.644 46.531,311.555 49.611,276.421 85.250 C 255.180 106.796,247.867 114.039,245.398 115.977 C 235.182 123.995,223.596 129.119,211.047 131.168 C 192.480 134.200,173.716 130.224,159.365 120.218 C 155.537 117.549,154.843 116.878,131.507 93.245 C 127.799 89.489,121.986 83.604,118.591 80.165 C 115.195 76.727,109.642 71.101,106.250 67.664 C 83.935 45.044,84.653 45.718,81.794 44.706 C 80.281 44.171,77.327 44.029,75.789 44.418 M93.000 118.926 C 123.400 120.282,149.290 145.926,151.663 177.030 C 151.892 180.024,151.890 221.161,151.661 224.167 C 148.601 264.402,108.555 291.497,69.917 279.476 C 46.258 272.116,29.463 251.959,26.055 226.833 C 25.583 223.356,25.587 177.818,26.059 174.250 C 29.067 151.513,43.163 132.765,64.000 123.788 C 71.748 120.450,82.037 118.424,89.500 118.768 C 90.188 118.799,91.763 118.871,93.000 118.926 M316.083 119.014 C 345.762 121.322,369.540 144.701,373.277 175.250 C 373.795 179.477,373.742 222.162,373.215 226.333 C 368.321 265.031,331.879 289.913,294.250 280.249 C 269.144 273.801,250.424 251.747,247.637 225.333 C 247.325 222.386,247.317 178.888,247.627 175.867 C 251.201 141.024,280.988 116.286,316.083 119.014 " stroke="none" fill="#8be304" fill-rule="evenodd"></path></g></svg>