<svg xmlns="http://www.w3.org/2000/svg" xmlns:xlink="http://www.w3.org/1999/xlink" version="1.1" id="Layer_1" x="0px" y="0px" enable-background="new 0 0 225 225" xml:space="preserve" viewBox="1 1 225 225">
<path fill="#8EE001" opacity="1.000000" stroke="none" d=" M1.000000,148.000000   C1.000000,125.312439 1.000000,102.624878 1.254644,79.247826   C3.806240,75.091408 6.303862,71.737167 8.334650,68.120781   C9.872171,65.382797 10.979797,62.365887 11.982434,59.373814   C13.505322,54.829205 14.317449,49.995419 16.259558,45.654987   C18.780153,40.021698 23.865019,39.453678 28.339149,43.737835   C30.273237,45.589802 32.209171,47.439835 34.042004,49.192932   C35.434334,43.295956 36.299809,37.858166 38.030796,32.711479   C40.674080,24.852287 45.492607,23.886877 51.292030,29.683764   C62.365818,40.752701 73.387650,51.873596 84.453796,62.950203   C100.822968,79.334839 126.142853,79.331718 142.576874,62.922020   C153.656418,51.858868 164.671890,40.731583 175.735367,29.652319   C181.513824,23.865625 186.361404,24.841211 188.972000,32.716724   C190.712051,37.965992 191.590103,43.500992 193.294281,50.792015   C195.607864,47.809265 197.111069,45.388218 199.079102,43.435715   C203.035782,39.510269 208.272293,40.131554 210.488358,45.232178   C212.574448,50.033642 213.563995,55.315605 214.980545,60.401604   C215.458969,62.119347 215.338943,64.152916 216.232056,65.578934   C219.311783,70.496346 222.718079,75.209221 226.000000,80.000000   C226.000000,102.020897 226.000000,124.041786 225.776306,146.791306   C211.555969,177.527679 175.115234,187.552719 147.986954,168.463974   C142.378616,164.517685 137.991806,158.835358 132.983826,153.732254   C132.925659,153.511337 132.903229,153.053864 133.317795,153.024017   C140.478989,152.304520 141.329086,150.939651 138.466675,144.908539   C133.768311,135.009094 125.962677,129.375320 114.946312,129.074493   C103.523331,128.762558 94.579124,133.471680 89.105042,143.772980   C85.345070,150.848633 86.183212,152.235016 94.086746,153.279297   C94.075539,153.507217 93.958748,153.948410 93.672363,154.121368   C92.866821,154.940002 92.344330,155.583038 91.829018,156.231781   C78.127403,173.480438 60.576782,180.999390 38.630798,177.006454   C21.149702,173.825882 8.978806,163.591400 1.000000,148.000000  M73.554649,75.911835   C62.372025,67.186012 50.041531,65.200722 37.015545,70.692719   C24.146563,76.118515 16.752739,86.299416 15.558262,100.150528   C14.775080,109.232277 14.682624,118.518898 15.624021,127.574120   C17.645412,147.017761 33.319374,160.482529 52.133606,159.909592   C70.585747,159.347687 85.135231,144.969772 86.343414,125.606384   C86.829613,117.814194 86.567993,109.962280 86.377007,102.144135   C86.123856,91.781708 81.805618,83.236977 73.554649,75.911835  M149.281769,148.204102   C161.076675,159.856262 175.291443,162.991211 189.409653,157.053970   C203.277466,151.222015 211.048813,138.907471 211.096695,122.652527   C211.116302,115.993347 211.182098,109.332809 211.082062,102.675064   C210.818329,85.122368 197.236298,69.787766 180.515930,68.064789   C161.250000,66.079491 144.324158,77.581444 141.116257,96.019707   C139.594193,104.768234 140.302444,113.909294 140.056412,122.874062   C139.799164,132.246902 142.730957,140.515717 149.281769,148.204102  z"/>
<path fill="#50C800" opacity="1.000000" stroke="none" d=" M133.042007,153.953171   C137.991806,158.835358 142.378616,164.517685 147.986954,168.463974   C175.115234,187.552719 211.555969,177.527679 225.776306,147.259964   C226.000000,161.354233 226.000000,175.708450 225.664337,190.688705   C222.318710,204.027786 215.581512,214.138412 204.009155,220.457184   C199.634781,222.845688 194.686615,224.183334 190.000000,226.000000   C138.979111,226.000000 87.958214,226.000000 36.311005,225.663986   C18.059584,220.956360 6.693223,210.168564 1.994320,192.514862   C1.846882,191.960938 1.339549,191.502792 0.999999,191.000000   C1.000000,176.979111 1.000000,162.958206 1.000000,148.468658   C8.978806,163.591400 21.149702,173.825882 38.630798,177.006454   C60.576782,180.999390 78.127403,173.480438 91.829018,156.231781   C92.344330,155.583038 92.866821,154.940002 93.732597,154.531479   C95.392426,167.745483 103.872955,175.254639 115.908707,174.097748   C125.502541,173.175583 131.884033,165.672501 133.042007,153.953171  z"/>
<path fill="#50C800" opacity="1.000000" stroke="none" d=" M226.000000,79.531342   C222.718079,75.209221 219.311783,70.496346 216.232056,65.578934   C215.338943,64.152916 215.458969,62.119347 214.980545,60.401604   C213.563995,55.315605 212.574448,50.033642 210.488358,45.232178   C208.272293,40.131554 203.035782,39.510269 199.079102,43.435715   C197.111069,45.388218 195.607864,47.809265 193.294281,50.792015   C191.590103,43.500992 190.712051,37.965992 188.972000,32.716724   C186.361404,24.841211 181.513824,23.865625 175.735367,29.652319   C164.671890,40.731583 153.656418,51.858868 142.576874,62.922020   C126.142853,79.331718 100.822968,79.334839 84.453796,62.950203   C73.387650,51.873596 62.365818,40.752701 51.292030,29.683764   C45.492607,23.886877 40.674080,24.852287 38.030796,32.711479   C36.299809,37.858166 35.434334,43.295956 34.042004,49.192932   C32.209171,47.439835 30.273237,45.589802 28.339149,43.737835   C23.865019,39.453678 18.780153,40.021698 16.259558,45.654987   C14.317449,49.995419 13.505322,54.829205 11.982434,59.373814   C10.979797,62.365887 9.872171,65.382797 8.334650,68.120781   C6.303862,71.737167 3.806240,75.091408 1.254644,78.779167   C1.000000,64.979103 1.000000,50.958210 1.335835,36.311317   C5.480409,20.114439 14.535161,9.097599 29.725658,3.439170   C32.120945,2.546931 34.573776,1.809181 37.000000,1.000000   C87.687561,1.000000 138.375122,1.000000 189.699432,1.342508   C203.910095,4.109075 214.100281,11.434696 220.702347,23.422581   C223.025757,27.641348 224.265472,32.456921 226.000000,37.000000   C226.000000,51.020893 226.000000,65.041786 226.000000,79.531342  z"/>
<path fill="#FCFEFB" opacity="1.000000" stroke="none" d=" M190.468658,226.000000   C194.686615,224.183334 199.634781,222.845688 204.009155,220.457184   C215.581512,214.138412 222.318710,204.027786 225.664337,191.157364   C226.000000,202.594299 226.000000,214.188599 226.000000,226.000000   C214.313339,226.000000 202.625320,226.000000 190.468658,226.000000  z"/>
<path fill="#FCFEFB" opacity="1.000000" stroke="none" d=" M36.531342,1.000000   C34.573776,1.809181 32.120945,2.546931 29.725658,3.439170   C14.535161,9.097599 5.480409,20.114439 1.335835,35.842659   C1.000000,24.405704 1.000000,12.811407 1.000000,1.000000   C12.686666,1.000000 24.374674,1.000000 36.531342,1.000000  z"/>
<path fill="#FCFEFB" opacity="1.000000" stroke="none" d=" M226.000000,36.531342   C224.265472,32.456921 223.025757,27.641348 220.702347,23.422581   C214.100281,11.434696 203.910095,4.109075 190.168091,1.342508   C201.926605,1.000000 213.853210,1.000000 226.000000,1.000000   C226.000000,12.686641 226.000000,24.374662 226.000000,36.531342  z"/>
<path fill="#FCFEFB" opacity="1.000000" stroke="none" d=" M0.999999,191.468658   C1.339549,191.502792 1.846882,191.960938 1.994320,192.514862   C6.693223,210.168564 18.059584,220.956360 35.842346,225.663986   C24.406744,226.000000 12.813488,226.000000 1.000000,226.000000   C1.000000,214.646713 1.000000,203.292023 0.999999,191.468658  z"/>
<path fill="#FDFEFB" opacity="1.000000" stroke="none" d=" M73.838028,76.129730   C81.805618,83.236977 86.123856,91.781708 86.377007,102.144135   C86.567993,109.962280 86.829613,117.814194 86.343414,125.606384   C85.135231,144.969772 70.585747,159.347687 52.133606,159.909592   C33.319374,160.482529 17.645412,147.017761 15.624021,127.574120   C14.682624,118.518898 14.775080,109.232277 15.558262,100.150528   C16.752739,86.299416 24.146563,76.118515 37.015545,70.692719   C50.041531,65.200722 62.372025,67.186012 73.838028,76.129730  M70.207146,132.515793   C71.137779,130.065781 72.752205,127.648361 72.870850,125.159637   C73.226898,117.691368 73.577049,110.130638 72.750557,102.737793   C72.348686,99.143150 69.924782,95.274292 67.348251,92.533562   C62.835743,87.733459 55.487209,87.483269 51.087219,91.063583   C54.468502,98.889908 52.872604,106.233818 46.254871,107.551994   C39.521820,108.893135 39.116688,112.493011 39.660820,117.666359   C39.799282,118.982796 39.670078,120.326263 39.684204,121.657089   C39.774200,130.136002 43.421452,136.086548 50.139736,138.727463   C57.096561,141.462173 63.838707,139.549622 70.207146,132.515793  z"/>
<path fill="#FEFEFD" opacity="1.000000" stroke="none" d=" M149.053986,147.928345   C142.730957,140.515717 139.799164,132.246902 140.056412,122.874062   C140.302444,113.909294 139.594193,104.768234 141.116257,96.019707   C144.324158,77.581444 161.250000,66.079491 180.515930,68.064789   C197.236298,69.787766 210.818329,85.122368 211.082062,102.675064   C211.182098,109.332809 211.116302,115.993347 211.096695,122.652527   C211.048813,138.907471 203.277466,151.222015 189.409653,157.053970   C175.291443,162.991211 161.076675,159.856262 149.053986,147.928345  M153.579926,125.591652   C154.001160,126.833534 154.422409,128.075409 154.929779,129.998459   C159.425400,138.075470 166.210983,141.339584 174.226135,139.280731   C182.244919,137.220932 186.937531,130.925797 187.017014,121.989777   C187.068710,116.179840 187.199387,110.361420 186.965805,104.560036   C186.460709,92.015244 173.701645,84.590027 162.790817,90.364449   C167.424835,100.034958 165.001434,105.818626 154.607361,108.711777   C154.215958,109.160973 153.824554,109.610161 153.300629,110.975578   C153.434769,115.626190 153.568909,120.276810 153.579926,125.591652  z"/>
<path fill="#FEC200" opacity="1.000000" stroke="none" d=" M94.097954,153.051376   C86.183212,152.235016 85.345070,150.848633 89.105042,143.772980   C94.579124,133.471680 103.523331,128.762558 114.946312,129.074493   C125.962677,129.375320 133.768311,135.009094 138.466675,144.908539   C141.329086,150.939651 140.478989,152.304520 132.939148,153.097977   C119.447594,157.122345 106.766075,156.782043 94.097954,153.051376  M122.103935,137.411850   C119.167656,133.239182 112.255234,131.057556 108.355423,133.826569   C106.438583,135.187592 105.115791,138.213058 104.842880,140.633957   C104.740807,141.539383 108.264626,143.325668 110.354820,143.875504   C112.515167,144.443802 114.942276,143.999878 117.252693,143.995392   C121.207306,143.987717 123.054832,142.137939 122.103935,137.411850  z"/>
<path fill="#F38100" opacity="1.000000" stroke="none" d=" M94.086746,153.279297   C106.766075,156.782043 119.447594,157.122345 132.524597,153.127808   C132.903229,153.053864 132.925659,153.511337 132.983826,153.732254   C131.884033,165.672501 125.502541,173.175583 115.908707,174.097748   C103.872955,175.254639 95.392426,167.745483 94.018982,154.358521   C93.958748,153.948410 94.075539,153.507217 94.086746,153.279297  z"/>
<path fill="#4C4C4C" opacity="1.000000" stroke="none" d=" M70.006050,132.832397   C63.838707,139.549622 57.096561,141.462173 50.139736,138.727463   C43.421452,136.086548 39.774200,130.136002 39.684204,121.657089   C39.670078,120.326263 39.799282,118.982796 39.660820,117.666359   C39.116688,112.493011 39.521820,108.893135 46.254871,107.551994   C52.872604,106.233818 54.468502,98.889908 51.087219,91.063583   C55.487209,87.483269 62.835743,87.733459 67.348251,92.533562   C69.924782,95.274292 72.348686,99.143150 72.750557,102.737793   C73.577049,110.130638 73.226898,117.691368 72.870850,125.159637   C72.752205,127.648361 71.137779,130.065781 70.006050,132.832397  z"/>
<path fill="#4C4C4C" opacity="1.000000" stroke="none" d=" M155.035156,108.874054   C165.001434,105.818626 167.424835,100.034958 162.790817,90.364449   C173.701645,84.590027 186.460709,92.015244 186.965805,104.560036   C187.199387,110.361420 187.068710,116.179840 187.017014,121.989777   C186.937531,130.925797 182.244919,137.220932 174.226135,139.280731   C166.210983,141.339584 159.425400,138.075470 154.914093,129.312393   C154.499954,127.393356 154.101501,126.160393 153.703049,124.927422   C153.568909,120.276810 153.434769,115.626190 153.603043,110.427086   C154.282028,109.543747 154.658600,109.208900 155.035156,108.874054  z"/>
<path fill="#616161" opacity="1.000000" stroke="none" d=" M153.641479,125.259537   C154.101501,126.160393 154.499954,127.393356 154.871033,128.971802   C154.422409,128.075409 154.001160,126.833534 153.641479,125.259537  z"/>
<path fill="#616161" opacity="1.000000" stroke="none" d=" M154.821259,108.792923   C154.658600,109.208900 154.282028,109.543747 153.669312,109.968971   C153.824554,109.610161 154.215958,109.160973 154.821259,108.792923  z"/>
<path fill="#FFE645" opacity="1.000000" stroke="none" d=" M122.250710,137.757202   C123.054832,142.137939 121.207306,143.987717 117.252693,143.995392   C114.942276,143.999878 112.515167,144.443802 110.354820,143.875504   C108.264626,143.325668 104.740807,141.539383 104.842880,140.633957   C105.115791,138.213058 106.438583,135.187592 108.355423,133.826569   C112.255234,131.057556 119.167656,133.239182 122.250710,137.757202  z"/>
</svg>