<svg version="1.1" id="Layer_1" xmlns="http://www.w3.org/2000/svg" xmlns:xlink="http://www.w3.org/1999/xlink" x="0px" y="0px"
	 width="100%" viewBox="0 0 3000 3000" enable-background="new 0 0 3000 3000" xml:space="preserve">
<path fill="#8EE000" opacity="1.000000" stroke="none" 
	d="
M2.000000,1958.000000 
	C2.000000,1657.951782 2.000000,1357.903687 2.661068,1056.720093 
	C4.731429,1053.814575 6.596558,1052.246094 7.482061,1050.244385 
	C21.939264,1017.561768 39.203281,986.360657 59.048344,956.731689 
	C83.525703,920.186523 110.255821,885.296875 142.278564,854.876221 
	C148.121765,849.325317 150.054062,843.356079 150.133377,835.491516 
	C150.368149,812.210815 149.884216,788.767151 152.513000,765.710022 
	C155.139435,742.673462 160.409927,719.838074 165.903076,697.250488 
	C175.802032,656.546326 191.980576,618.242981 212.996170,582.002075 
	C224.588562,562.011169 240.660355,547.196533 262.816467,539.686096 
	C293.645447,529.235840 322.868286,532.761963 348.995667,552.256531 
	C359.515442,560.105713 368.150879,570.574524 377.229065,580.240662 
	C392.942871,596.972290 408.419678,613.929443 423.824524,630.947083 
	C432.077301,640.063904 439.883423,649.583801 448.069702,658.762573 
	C451.729279,662.865906 455.828156,666.577515 459.727661,670.466858 
	C460.376190,670.185791 461.024689,669.904663 461.673218,669.623596 
	C461.673218,664.800110 461.878632,659.965820 461.624390,655.155823 
	C461.256561,648.197937 460.199951,641.264221 460.072174,634.308472 
	C459.815125,620.313416 460.189056,606.306885 459.936737,592.311646 
	C459.502441,568.222046 463.147827,544.576355 467.300568,520.984192 
	C473.622589,485.068024 484.342957,450.441162 498.795166,417.003326 
	C506.581360,398.988403 514.222473,380.717804 526.621704,365.268433 
	C548.280090,338.282288 576.658081,328.843323 610.295898,335.745056 
	C627.063354,339.185333 641.132935,348.279449 653.071045,360.261475 
	C669.988647,377.241302 686.257629,394.865570 703.073364,411.949097 
	C754.728516,464.426819 806.465027,516.824768 858.256897,569.167603 
	C931.383240,643.071777 1004.560608,716.925537 1077.773315,790.744080 
	C1101.949707,815.120544 1126.545898,839.084534 1150.512695,863.663635 
	C1178.516357,892.382629 1211.555054,914.036560 1246.422974,933.120422 
	C1274.558716,948.519653 1304.195068,960.460266 1334.837524,970.015076 
	C1383.476685,985.181335 1433.378784,992.405701 1484.142334,993.826782 
	C1499.390991,994.253662 1514.736572,993.192017 1529.963989,991.925110 
	C1550.809082,990.190735 1571.809570,988.862549 1592.347290,985.161621 
	C1660.147461,972.943970 1724.048828,949.783508 1783.323608,914.309998 
	C1820.637573,891.979004 1854.953613,865.734009 1885.733154,835.067749 
	C1914.282349,806.623535 1942.111694,777.458008 1970.363403,748.713745 
	C2014.035767,704.280334 2057.774170,659.911560 2101.528564,615.558716 
	C2154.177979,562.188965 2206.810059,508.801575 2259.572754,455.543884 
	C2290.539062,424.287262 2321.697998,393.221191 2352.889893,362.189484 
	C2357.826660,357.278076 2363.013184,352.441589 2368.740967,348.532745 
	C2390.999023,333.343445 2415.277588,329.601501 2441.088379,337.425476 
	C2459.783691,343.092499 2473.693359,355.628693 2484.520264,371.144043 
	C2502.812256,397.357513 2513.372314,427.362915 2523.719727,457.257996 
	C2537.846191,498.071198 2544.885498,540.446106 2547.617432,583.377869 
	C2549.348633,610.580383 2548.654785,637.941284 2544.778564,665.075806 
	C2544.530029,666.813965 2545.043945,668.661072 2545.384521,672.499756 
	C2548.796143,669.370056 2550.996582,667.609436 2552.887451,665.562683 
	C2556.720703,661.413696 2560.334473,657.062805 2564.131836,652.879639 
	C2571.958252,644.257935 2579.855469,635.700439 2587.706787,627.101074 
	C2608.114502,604.748352 2627.635986,581.498413 2649.145996,560.262695 
	C2674.033936,535.691956 2704.579834,528.411438 2738.537109,537.908325 
	C2767.411377,545.983704 2786.405762,565.423096 2799.808350,591.483337 
	C2816.005127,622.975952 2830.033447,655.279785 2839.571533,689.469971 
	C2850.983643,730.377930 2857.444336,771.985229 2857.981689,814.473816 
	C2858.103760,824.138672 2858.266113,833.816895 2857.896240,843.469238 
	C2857.648438,849.926453 2859.781494,854.670898 2864.198242,859.482544 
	C2877.683105,874.172363 2891.026611,889.039246 2903.612061,904.499023 
	C2941.246826,950.729126 2971.906738,1001.298950 2996.346191,1055.670776 
	C2997.451904,1058.130615 3000.080811,1059.905884 3002.000000,1062.000000 
	C3002.000000,1358.048218 3002.000000,1654.096313 3001.340088,1951.258911 
	C2998.751465,1954.991333 2996.416748,1957.405273 2994.977051,1960.268921 
	C2991.839600,1966.509155 2989.314941,1973.054688 2986.264160,1979.341553 
	C2968.916748,2015.086060 2948.302246,2048.934082 2925.029541,2081.054443 
	C2911.583984,2099.611084 2897.482422,2117.909668 2881.839844,2134.603760 
	C2861.375732,2156.443359 2839.787109,2177.361572 2817.382080,2197.208496 
	C2799.255371,2213.265381 2779.666748,2227.800049 2759.903076,2241.851807 
	C2728.369141,2264.271973 2694.737549,2283.171631 2659.538086,2299.395996 
	C2624.948975,2315.339111 2589.381348,2328.379639 2552.639648,2338.259521 
	C2521.759033,2346.563721 2490.556396,2353.394531 2458.661133,2356.347412 
	C2434.860840,2358.550537 2411.025879,2361.206299 2387.165527,2361.703857 
	C2361.589111,2362.237061 2335.921631,2363.515625 2310.335938,2360.183350 
	C2298.170898,2358.599121 2285.646484,2359.507324 2273.575439,2357.520752 
	C2244.058350,2352.663330 2214.408936,2348.027588 2185.362793,2341.021973 
	C2138.613037,2329.746338 2093.773193,2312.596680 2050.685547,2291.205322 
	C2021.437256,2276.684570 1993.610107,2259.683350 1966.619507,2241.248047 
	C1931.594238,2217.324707 1899.770630,2189.629150 1869.387329,2160.200195 
	C1862.234985,2153.272461 1855.841064,2145.557373 1849.161133,2138.147705 
	C1842.481079,2130.737793 1835.505249,2123.553955 1829.311157,2115.753418 
	C1807.978760,2088.888672 1787.489258,2061.404053 1770.672119,2031.426514 
	C1797.240845,2026.622681 1823.143799,2022.183716 1849.054199,2017.788696 
	C1854.865112,2016.802856 1857.148315,2014.689941 1858.019165,2008.842773 
	C1858.311768,2006.878052 1858.204590,2004.854858 1858.295898,2002.859009 
	C1859.232788,1982.375732 1852.622437,1963.377441 1846.055908,1944.555054 
	C1823.006348,1878.484985 1782.602661,1824.877319 1727.255371,1782.503906 
	C1673.015015,1740.978149 1611.629639,1716.727783 1543.650757,1710.569702 
	C1511.459595,1707.653687 1479.052490,1708.820801 1447.049805,1714.428833 
	C1356.944092,1730.218994 1280.217163,1770.314453 1220.498413,1840.558105 
	C1183.718750,1883.820068 1159.849243,1933.517700 1149.194092,1989.368286 
	C1148.088745,1995.161865 1148.169800,2001.332397 1148.677979,2007.244019 
	C1149.266357,2014.088501 1152.413696,2016.810547 1158.594849,2017.794312 
	C1172.065918,2019.938477 1185.564575,2021.933838 1198.988647,2024.342163 
	C1212.066284,2026.688477 1225.065186,2029.473755 1237.954102,2032.765869 
	C1236.050171,2037.042114 1234.645020,2040.850708 1232.478027,2044.160522 
	C1201.031250,2092.188232 1165.815796,2137.004883 1123.363281,2176.049561 
	C1101.030029,2196.590088 1077.968018,2216.007812 1053.496582,2233.935303 
	C1009.989441,2265.807617 963.014587,2291.271240 913.301697,2311.875977 
	C877.814758,2326.584473 841.137207,2337.586182 803.698975,2345.966309 
	C778.062866,2351.704590 752.210693,2356.365967 725.918091,2358.107178 
	C708.023743,2359.291992 690.143677,2361.751221 672.256958,2361.753906 
	C642.321472,2361.758057 612.329651,2363.808594 582.423340,2360.142090 
	C570.567139,2358.688232 558.436829,2359.238281 546.662170,2357.398682 
	C522.034851,2353.550537 497.433655,2349.323242 473.050995,2344.167236 
	C425.920959,2334.200928 380.808136,2317.920898 337.293976,2297.475098 
	C292.861755,2276.597412 250.810486,2251.514160 212.439850,2220.775391 
	C191.698013,2204.158936 171.713531,2186.551025 152.010437,2168.702881 
	C141.935867,2159.576416 133.387375,2148.785645 123.880966,2139.007812 
	C99.646683,2114.081543 79.112617,2086.215088 59.860126,2057.447266 
	C41.521442,2030.045044 24.845490,2001.612915 11.469637,1971.344360 
	C9.301872,1966.438843 8.383991,1960.127319 2.000000,1958.000000 
M663.745667,2120.086670 
	C667.835022,2120.114258 671.924377,2120.141846 677.165955,2120.781250 
	C680.110535,2120.523926 683.055054,2120.266846 687.797119,2119.865234 
	C708.327087,2117.729248 729.132629,2117.049561 749.343201,2113.225586 
	C901.665649,2084.404541 1014.841980,2001.321411 1088.883057,1865.324219 
	C1116.034424,1815.453369 1131.892334,1761.681763 1138.638916,1705.339722 
	C1140.615845,1688.831543 1142.031250,1672.145630 1142.083862,1655.535889 
	C1142.398926,1556.220581 1142.680786,1456.900391 1141.928101,1357.589722 
	C1141.742065,1333.053833 1139.481201,1308.219727 1135.092407,1284.082886 
	C1113.518311,1165.432495 1055.762939,1067.439087 960.275269,993.863098 
	C834.211182,896.727051 692.370422,869.249451 539.359009,911.633789 
	C410.324005,947.376709 314.891754,1027.777954 250.540802,1145.032349 
	C224.810867,1191.915161 209.476105,1242.502319 200.425720,1294.860718 
	C196.761124,1316.061279 196.090698,1337.969238 195.993332,1359.564087 
	C195.551575,1457.545410 195.747086,1555.529785 195.833740,1653.513062 
	C195.859100,1682.178833 198.904190,1710.572510 204.451691,1738.704956 
	C237.344727,1905.512451 359.489471,2043.395264 520.979553,2096.596436 
	C550.475281,2106.313477 580.824280,2112.005615 611.164856,2117.652832 
	C624.461975,2120.128174 638.369934,2119.322510 653.143738,2120.639160 
	C656.094116,2120.482666 659.044495,2120.326172 663.745667,2120.086670 
M2692.902100,1060.096313 
	C2678.811279,1045.463501 2665.674805,1029.747070 2650.478760,1016.369995 
	C2531.380615,911.526794 2393.125732,873.018738 2237.550049,902.753662 
	C2073.969971,934.018311 1937.724731,1055.377075 1883.966553,1213.382080 
	C1866.634888,1264.323486 1858.541870,1316.733398 1858.520508,1370.454346 
	C1858.485107,1459.102539 1858.309448,1547.751587 1858.651611,1636.398438 
	C1858.732544,1657.353516 1859.737549,1678.393433 1861.867065,1699.235840 
	C1868.988403,1768.931885 1890.717285,1834.059814 1928.131958,1893.216064 
	C2008.925293,2020.957764 2124.266602,2096.044922 2274.451904,2116.462158 
	C2318.609131,2122.465088 2362.743652,2121.219971 2406.750977,2114.223145 
	C2472.146484,2103.825439 2533.204346,2081.533447 2588.150146,2044.617432 
	C2727.470459,1951.013428 2800.951660,1819.844482 2805.182373,1652.010742 
	C2807.625732,1555.092651 2805.709473,1458.062256 2805.579590,1361.082764 
	C2805.542236,1333.095703 2802.468018,1305.311890 2797.215576,1277.862427 
	C2781.676514,1196.655884 2746.986572,1124.483154 2692.902100,1060.096313 
z"/>
<path fill="#78C800" opacity="1.000000" stroke="none" 
	d="
M1770.009155,2031.807129 
	C1787.489258,2061.404053 1807.978760,2088.888672 1829.311157,2115.753418 
	C1835.505249,2123.553955 1842.481079,2130.737793 1849.161133,2138.147705 
	C1855.841064,2145.557373 1862.234985,2153.272461 1869.387329,2160.200195 
	C1899.770630,2189.629150 1931.594238,2217.324707 1966.619507,2241.248047 
	C1993.610107,2259.683350 2021.437256,2276.684570 2050.685547,2291.205322 
	C2093.773193,2312.596680 2138.613037,2329.746338 2185.362793,2341.021973 
	C2214.408936,2348.027588 2244.058350,2352.663330 2273.575439,2357.520752 
	C2285.646484,2359.507324 2298.170898,2358.599121 2310.335938,2360.183350 
	C2335.921631,2363.515625 2361.589111,2362.237061 2387.165527,2361.703857 
	C2411.025879,2361.206299 2434.860840,2358.550537 2458.661133,2356.347412 
	C2490.556396,2353.394531 2521.759033,2346.563721 2552.639648,2338.259521 
	C2589.381348,2328.379639 2624.948975,2315.339111 2659.538086,2299.395996 
	C2694.737549,2283.171631 2728.369141,2264.271973 2759.903076,2241.851807 
	C2779.666748,2227.800049 2799.255371,2213.265381 2817.382080,2197.208496 
	C2839.787109,2177.361572 2861.375732,2156.443359 2881.839844,2134.603760 
	C2897.482422,2117.909668 2911.583984,2099.611084 2925.029541,2081.054443 
	C2948.302246,2048.934082 2968.916748,2015.086060 2986.264160,1979.341553 
	C2989.314941,1973.054688 2991.839600,1966.509155 2994.977051,1960.268921 
	C2996.416748,1957.405273 2998.751465,1954.991333 3001.340088,1952.186646 
	C3002.000000,2301.940186 3002.000000,2651.880127 3002.000000,3001.910156 
	C2002.231201,3001.910156 1002.462341,3001.910156 2.000000,3001.910156 
	C2.000000,2654.625244 2.000000,2307.250000 2.000000,1958.937256 
	C8.383991,1960.127319 9.301872,1966.438843 11.469637,1971.344360 
	C24.845490,2001.612915 41.521442,2030.045044 59.860126,2057.447266 
	C79.112617,2086.215088 99.646683,2114.081543 123.880966,2139.007812 
	C133.387375,2148.785645 141.935867,2159.576416 152.010437,2168.702881 
	C171.713531,2186.551025 191.698013,2204.158936 212.439850,2220.775391 
	C250.810486,2251.514160 292.861755,2276.597412 337.293976,2297.475098 
	C380.808136,2317.920898 425.920959,2334.200928 473.050995,2344.167236 
	C497.433655,2349.323242 522.034851,2353.550537 546.662170,2357.398682 
	C558.436829,2359.238281 570.567139,2358.688232 582.423340,2360.142090 
	C612.329651,2363.808594 642.321472,2361.758057 672.256958,2361.753906 
	C690.143677,2361.751221 708.023743,2359.291992 725.918091,2358.107178 
	C752.210693,2356.365967 778.062866,2351.704590 803.698975,2345.966309 
	C841.137207,2337.586182 877.814758,2326.584473 913.301697,2311.875977 
	C963.014587,2291.271240 1009.989441,2265.807617 1053.496582,2233.935303 
	C1077.968018,2216.007812 1101.030029,2196.590088 1123.363281,2176.049561 
	C1165.815796,2137.004883 1201.031250,2092.188232 1232.478027,2044.160522 
	C1234.645020,2040.850708 1236.050171,2037.042114 1238.674927,2032.708862 
	C1241.823730,2032.559570 1244.107300,2033.166870 1246.314453,2034.732666 
	C1246.705688,2050.656738 1246.445923,2065.687012 1247.768799,2080.576416 
	C1253.066284,2140.202637 1276.537598,2192.128906 1318.406250,2234.592285 
	C1380.578613,2297.647949 1456.395874,2323.127686 1544.195190,2310.163330 
	C1643.082275,2295.561523 1725.624390,2220.934082 1751.983154,2124.127441 
	C1760.057007,2094.475342 1761.109619,2064.341064 1761.169189,2033.591309 
	C1764.510986,2032.747559 1767.260132,2032.277344 1770.009155,2031.807129 
z"/>
<path fill="#78C800" opacity="1.000000" stroke="none" 
	d="
M3002.000000,1061.062744 
	C3000.080811,1059.905884 2997.451904,1058.130615 2996.346191,1055.670776 
	C2971.906738,1001.298950 2941.246826,950.729126 2903.612061,904.499023 
	C2891.026611,889.039246 2877.683105,874.172363 2864.198242,859.482544 
	C2859.781494,854.670898 2857.648438,849.926453 2857.896240,843.469238 
	C2858.266113,833.816895 2858.103760,824.138672 2857.981689,814.473816 
	C2857.444336,771.985229 2850.983643,730.377930 2839.571533,689.469971 
	C2830.033447,655.279785 2816.005127,622.975952 2799.808350,591.483337 
	C2786.405762,565.423096 2767.411377,545.983704 2738.537109,537.908325 
	C2704.579834,528.411438 2674.033936,535.691956 2649.145996,560.262695 
	C2627.635986,581.498413 2608.114502,604.748352 2587.706787,627.101074 
	C2579.855469,635.700439 2571.958252,644.257935 2564.131836,652.879639 
	C2560.334473,657.062805 2556.720703,661.413696 2552.887451,665.562683 
	C2550.996582,667.609436 2548.796143,669.370056 2545.384521,672.499756 
	C2545.043945,668.661072 2544.530029,666.813965 2544.778564,665.075806 
	C2548.654785,637.941284 2549.348633,610.580383 2547.617432,583.377869 
	C2544.885498,540.446106 2537.846191,498.071198 2523.719727,457.257996 
	C2513.372314,427.362915 2502.812256,397.357513 2484.520264,371.144043 
	C2473.693359,355.628693 2459.783691,343.092499 2441.088379,337.425476 
	C2415.277588,329.601501 2390.999023,333.343445 2368.740967,348.532745 
	C2363.013184,352.441589 2357.826660,357.278076 2352.889893,362.189484 
	C2321.697998,393.221191 2290.539062,424.287262 2259.572754,455.543884 
	C2206.810059,508.801575 2154.177979,562.188965 2101.528564,615.558716 
	C2057.774170,659.911560 2014.035767,704.280334 1970.363403,748.713745 
	C1942.111694,777.458008 1914.282349,806.623535 1885.733154,835.067749 
	C1854.953613,865.734009 1820.637573,891.979004 1783.323608,914.309998 
	C1724.048828,949.783508 1660.147461,972.943970 1592.347290,985.161621 
	C1571.809570,988.862549 1550.809082,990.190735 1529.963989,991.925110 
	C1514.736572,993.192017 1499.390991,994.253662 1484.142334,993.826782 
	C1433.378784,992.405701 1383.476685,985.181335 1334.837524,970.015076 
	C1304.195068,960.460266 1274.558716,948.519653 1246.422974,933.120422 
	C1211.555054,914.036560 1178.516357,892.382629 1150.512695,863.663635 
	C1126.545898,839.084534 1101.949707,815.120544 1077.773315,790.744080 
	C1004.560608,716.925537 931.383240,643.071777 858.256897,569.167603 
	C806.465027,516.824768 754.728516,464.426819 703.073364,411.949097 
	C686.257629,394.865570 669.988647,377.241302 653.071045,360.261475 
	C641.132935,348.279449 627.063354,339.185333 610.295898,335.745056 
	C576.658081,328.843323 548.280090,338.282288 526.621704,365.268433 
	C514.222473,380.717804 506.581360,398.988403 498.795166,417.003326 
	C484.342957,450.441162 473.622589,485.068024 467.300568,520.984192 
	C463.147827,544.576355 459.502441,568.222046 459.936737,592.311646 
	C460.189056,606.306885 459.815125,620.313416 460.072174,634.308472 
	C460.199951,641.264221 461.256561,648.197937 461.624390,655.155823 
	C461.878632,659.965820 461.673218,664.800110 461.673218,669.623596 
	C461.024689,669.904663 460.376190,670.185791 459.727661,670.466858 
	C455.828156,666.577515 451.729279,662.865906 448.069702,658.762573 
	C439.883423,649.583801 432.077301,640.063904 423.824524,630.947083 
	C408.419678,613.929443 392.942871,596.972290 377.229065,580.240662 
	C368.150879,570.574524 359.515442,560.105713 348.995667,552.256531 
	C322.868286,532.761963 293.645447,529.235840 262.816467,539.686096 
	C240.660355,547.196533 224.588562,562.011169 212.996170,582.002075 
	C191.980576,618.242981 175.802032,656.546326 165.903076,697.250488 
	C160.409927,719.838074 155.139435,742.673462 152.513000,765.710022 
	C149.884216,788.767151 150.368149,812.210815 150.133377,835.491516 
	C150.054062,843.356079 148.121765,849.325317 142.278564,854.876221 
	C110.255821,885.296875 83.525703,920.186523 59.048344,956.731689 
	C39.203281,986.360657 21.939264,1017.561768 7.482061,1050.244385 
	C6.596558,1052.246094 4.731429,1053.814575 2.661068,1055.792358 
	C2.000000,704.726624 2.000000,353.453186 2.000000,2.089900 
	C1001.769470,2.089900 2001.538940,2.089900 3002.000000,2.089900 
	C3002.000000,354.708160 3002.000000,707.416748 3002.000000,1061.062744 
z"/>
<path fill="#FFFFFF" opacity="1.000000" stroke="none" 
	d="
M676.013733,2120.169434 
	C671.924377,2120.141846 667.835022,2120.114258 662.281738,2119.885986 
	C657.878662,2119.792236 654.939575,2119.899414 652.000488,2120.006836 
	C638.369934,2119.322510 624.461975,2120.128174 611.164856,2117.652832 
	C580.824280,2112.005615 550.475281,2106.313477 520.979553,2096.596436 
	C359.489471,2043.395264 237.344727,1905.512451 204.451691,1738.704956 
	C198.904190,1710.572510 195.859100,1682.178833 195.833740,1653.513062 
	C195.747086,1555.529785 195.551575,1457.545410 195.993332,1359.564087 
	C196.090698,1337.969238 196.761124,1316.061279 200.425720,1294.860718 
	C209.476105,1242.502319 224.810867,1191.915161 250.540802,1145.032349 
	C314.891754,1027.777954 410.324005,947.376709 539.359009,911.633789 
	C692.370422,869.249451 834.211182,896.727051 960.275269,993.863098 
	C1055.762939,1067.439087 1113.518311,1165.432495 1135.092407,1284.082886 
	C1139.481201,1308.219727 1141.742065,1333.053833 1141.928101,1357.589722 
	C1142.680786,1456.900391 1142.398926,1556.220581 1142.083862,1655.535889 
	C1142.031250,1672.145630 1140.615845,1688.831543 1138.638916,1705.339722 
	C1131.892334,1761.681763 1116.034424,1815.453369 1088.883057,1865.324219 
	C1014.841980,2001.321411 901.665649,2084.404541 749.343201,2113.225586 
	C729.132629,2117.049561 708.327087,2117.729248 686.303284,2119.715088 
	C681.877563,2119.766602 678.945618,2119.968018 676.013733,2120.169434 
M518.109924,1648.733398 
	C516.920288,1657.187622 520.106079,1665.003906 521.652283,1673.060181 
	C545.914001,1799.474487 674.481812,1880.099487 798.816589,1846.833618 
	C848.129395,1833.640015 888.516113,1806.828735 919.776123,1766.537476 
	C950.586487,1726.825806 965.881104,1681.454468 966.154846,1631.380005 
	C966.597473,1550.414185 966.383789,1469.443970 966.165588,1388.476440 
	C966.134338,1376.862061 965.364624,1365.118164 963.525879,1353.660522 
	C943.064087,1226.160156 818.006165,1141.818359 692.272095,1170.575562 
	C677.794128,1173.886963 663.566162,1178.116943 649.850464,1185.160645 
	C697.112793,1234.360352 712.685486,1291.009155 683.363098,1353.022339 
	C650.765076,1421.963257 592.090454,1445.587280 517.474426,1434.461182 
	C517.474426,1438.645752 517.474426,1442.266235 517.474426,1445.886719 
	C517.474426,1489.203003 517.414673,1532.519531 517.498169,1575.835693 
	C517.543762,1599.489868 517.831970,1623.143677 518.109924,1648.733398 
z"/>
<path fill="#FFFFFF" opacity="1.000000" stroke="none" 
	d="
M2693.372314,1060.630371 
	C2746.986572,1124.483154 2781.676514,1196.655884 2797.215576,1277.862427 
	C2802.468018,1305.311890 2805.542236,1333.095703 2805.579590,1361.082764 
	C2805.709473,1458.062256 2807.625732,1555.092651 2805.182373,1652.010742 
	C2800.951660,1819.844482 2727.470459,1951.013428 2588.150146,2044.617432 
	C2533.204346,2081.533447 2472.146484,2103.825439 2406.750977,2114.223145 
	C2362.743652,2121.219971 2318.609131,2122.465088 2274.451904,2116.462158 
	C2124.266602,2096.044922 2008.925293,2020.957764 1928.131958,1893.216064 
	C1890.717285,1834.059814 1868.988403,1768.931885 1861.867065,1699.235840 
	C1859.737549,1678.393433 1858.732544,1657.353516 1858.651611,1636.398438 
	C1858.309448,1547.751587 1858.485107,1459.102539 1858.520508,1370.454346 
	C1858.541870,1316.733398 1866.634888,1264.323486 1883.966553,1213.382080 
	C1937.724731,1055.377075 2073.969971,934.018311 2237.550049,902.753662 
	C2393.125732,873.018738 2531.380615,911.526794 2650.478760,1016.369995 
	C2665.674805,1029.747070 2678.811279,1045.463501 2693.372314,1060.630371 
M2255.178467,1854.421753 
	C2258.115723,1854.258301 2261.052734,1854.094727 2265.806396,1854.000488 
	C2277.046631,1852.799316 2288.412842,1852.294922 2299.507568,1850.289185 
	C2405.451416,1831.136597 2482.903076,1739.801025 2483.718506,1632.191162 
	C2484.337158,1550.556763 2483.960205,1468.913696 2483.785400,1387.274902 
	C2483.723389,1358.319458 2478.368896,1330.174683 2466.617676,1303.688477 
	C2432.403564,1226.571899 2373.639404,1180.450684 2290.114258,1167.518921 
	C2243.005371,1160.225342 2197.931152,1168.529907 2155.512939,1190.505249 
	C2154.445801,1191.058105 2153.626953,1192.089355 2152.687256,1192.901855 
	C2193.302002,1239.872803 2204.411133,1292.974731 2180.235352,1349.564697 
	C2153.633057,1411.834717 2102.195801,1438.452637 2035.131714,1437.907471 
	C2034.925781,1440.658691 2034.564331,1443.247681 2034.563110,1445.836914 
	C2034.534790,1506.816406 2034.331787,1567.797241 2034.675659,1628.774780 
	C2034.782104,1647.647339 2036.440674,1666.438232 2041.518188,1684.866211 
	C2047.215820,1705.544800 2054.589600,1725.485107 2065.943359,1743.672241 
	C2109.344482,1813.194458 2171.837891,1850.402832 2255.178467,1854.421753 
z"/>
<path fill="#FFC200" opacity="1.000000" stroke="none" 
	d="
M1770.672119,2031.426514 
	C1767.260132,2032.277344 1764.510986,2032.747559 1760.254761,2033.570801 
	C1755.116943,2034.299072 1751.447632,2034.455322 1747.862305,2035.087280 
	C1731.816162,2037.916626 1715.803955,2040.937622 1699.761230,2043.787354 
	C1641.161743,2054.197266 1582.615356,2064.930176 1523.903076,2074.661621 
	C1511.296387,2076.750977 1497.991211,2076.150635 1485.168945,2074.998047 
	C1471.644409,2073.782227 1458.318604,2070.389404 1444.895752,2068.005127 
	C1392.188232,2058.643066 1339.487915,2049.240967 1286.759399,2039.999512 
	C1273.351318,2037.649414 1259.849487,2035.834961 1246.390747,2033.774292 
	C1244.107300,2033.166870 1241.823730,2032.559570 1238.819458,2032.009277 
	C1225.065186,2029.473755 1212.066284,2026.688477 1198.988647,2024.342163 
	C1185.564575,2021.933838 1172.065918,2019.938477 1158.594849,2017.794312 
	C1152.413696,2016.810547 1149.266357,2014.088501 1148.677979,2007.244019 
	C1148.169800,2001.332397 1148.088745,1995.161865 1149.194092,1989.368286 
	C1159.849243,1933.517700 1183.718750,1883.820068 1220.498413,1840.558105 
	C1280.217163,1770.314453 1356.944092,1730.218994 1447.049805,1714.428833 
	C1479.052490,1708.820801 1511.459595,1707.653687 1543.650757,1710.569702 
	C1611.629639,1716.727783 1673.015015,1740.978149 1727.255371,1782.503906 
	C1782.602661,1824.877319 1823.006348,1878.484985 1846.055908,1944.555054 
	C1852.622437,1963.377441 1859.232788,1982.375732 1858.295898,2002.859009 
	C1858.204590,2004.854858 1858.311768,2006.878052 1858.019165,2008.842773 
	C1857.148315,2014.689941 1854.865112,2016.802856 1849.054199,2017.788696 
	C1823.143799,2022.183716 1797.240845,2026.622681 1770.672119,2031.426514 
M1389.837646,1880.855225 
	C1402.538940,1900.828003 1420.770386,1910.115479 1444.382324,1909.971558 
	C1484.360474,1909.727905 1524.343750,1909.625732 1564.320190,1909.983521 
	C1601.764160,1910.318481 1629.392212,1878.587280 1624.728027,1841.843872 
	C1620.390625,1807.672729 1593.858398,1775.511597 1560.103516,1767.133911 
	C1523.989258,1758.170532 1487.775879,1757.012085 1451.357056,1765.593506 
	C1425.976562,1771.573975 1406.175537,1785.293579 1393.536499,1808.025269 
	C1380.815186,1830.905029 1376.476685,1854.866943 1389.837646,1880.855225 
z"/>
<path fill="#B7EB5E" opacity="1.000000" stroke="none" 
	d="
M652.572144,2120.322754 
	C654.939575,2119.899414 657.878662,2119.792236 661.406311,2119.927734 
	C659.044495,2120.326172 656.094116,2120.482666 652.572144,2120.322754 
z"/>
<path fill="#B7EB5E" opacity="1.000000" stroke="none" 
	d="
M676.589844,2120.475586 
	C678.945618,2119.968018 681.877563,2119.766602 685.404541,2119.787109 
	C683.055054,2120.266846 680.110535,2120.523926 676.589844,2120.475586 
z"/>
<path fill="#F48000" opacity="1.000000" stroke="none" 
	d="
M1246.314453,2034.732666 
	C1259.849487,2035.834961 1273.351318,2037.649414 1286.759399,2039.999512 
	C1339.487915,2049.240967 1392.188232,2058.643066 1444.895752,2068.005127 
	C1458.318604,2070.389404 1471.644409,2073.782227 1485.168945,2074.998047 
	C1497.991211,2076.150635 1511.296387,2076.750977 1523.903076,2074.661621 
	C1582.615356,2064.930176 1641.161743,2054.197266 1699.761230,2043.787354 
	C1715.803955,2040.937622 1731.816162,2037.916626 1747.862305,2035.087280 
	C1751.447632,2034.455322 1755.116943,2034.299072 1759.661987,2033.944336 
	C1761.109619,2064.341064 1760.057007,2094.475342 1751.983154,2124.127441 
	C1725.624390,2220.934082 1643.082275,2295.561523 1544.195190,2310.163330 
	C1456.395874,2323.127686 1380.578613,2297.647949 1318.406250,2234.592285 
	C1276.537598,2192.128906 1253.066284,2140.202637 1247.768799,2080.576416 
	C1246.445923,2065.687012 1246.705688,2050.656738 1246.314453,2034.732666 
z"/>
<path fill="#4B4B4B" opacity="1.000000" stroke="none" 
	d="
M518.060364,1647.765503 
	C517.831970,1623.143677 517.543762,1599.489868 517.498169,1575.835693 
	C517.414673,1532.519531 517.474426,1489.203003 517.474426,1445.886719 
	C517.474426,1442.266235 517.474426,1438.645752 517.474426,1434.461182 
	C592.090454,1445.587280 650.765076,1421.963257 683.363098,1353.022339 
	C712.685486,1291.009155 697.112793,1234.360352 649.850464,1185.160645 
	C663.566162,1178.116943 677.794128,1173.886963 692.272095,1170.575562 
	C818.006165,1141.818359 943.064087,1226.160156 963.525879,1353.660522 
	C965.364624,1365.118164 966.134338,1376.862061 966.165588,1388.476440 
	C966.383789,1469.443970 966.597473,1550.414185 966.154846,1631.380005 
	C965.881104,1681.454468 950.586487,1726.825806 919.776123,1766.537476 
	C888.516113,1806.828735 848.129395,1833.640015 798.816589,1846.833618 
	C674.481812,1880.099487 545.914001,1799.474487 521.652283,1673.060181 
	C520.106079,1665.003906 516.920288,1657.187622 518.060364,1647.765503 
z"/>
<path fill="#4B4B4B" opacity="1.000000" stroke="none" 
	d="
M2254.007324,1853.919556 
	C2171.837891,1850.402832 2109.344482,1813.194458 2065.943359,1743.672241 
	C2054.589600,1725.485107 2047.215820,1705.544800 2041.518188,1684.866211 
	C2036.440674,1666.438232 2034.782104,1647.647339 2034.675659,1628.774780 
	C2034.331787,1567.797241 2034.534790,1506.816406 2034.563110,1445.836914 
	C2034.564331,1443.247681 2034.925781,1440.658691 2035.131714,1437.907471 
	C2102.195801,1438.452637 2153.633057,1411.834717 2180.235352,1349.564697 
	C2204.411133,1292.974731 2193.302002,1239.872803 2152.687256,1192.901855 
	C2153.626953,1192.089355 2154.445801,1191.058105 2155.512939,1190.505249 
	C2197.931152,1168.529907 2243.005371,1160.225342 2290.114258,1167.518921 
	C2373.639404,1180.450684 2432.403564,1226.571899 2466.617676,1303.688477 
	C2478.368896,1330.174683 2483.723389,1358.319458 2483.785400,1387.274902 
	C2483.960205,1468.913696 2484.337158,1550.556763 2483.718506,1632.191162 
	C2482.903076,1739.801025 2405.451416,1831.136597 2299.507568,1850.289185 
	C2288.412842,1852.294922 2277.046631,1852.799316 2264.322754,1853.672607 
	C2259.895264,1853.536255 2256.951172,1853.727905 2254.007324,1853.919556 
z"/>
<path fill="#8C8C8C" opacity="1.000000" stroke="none" 
	d="
M2254.592773,1854.170654 
	C2256.951172,1853.727905 2259.895264,1853.536255 2263.414551,1853.637939 
	C2261.052734,1854.094727 2258.115723,1854.258301 2254.592773,1854.170654 
z"/>
<path fill="#FFE747" opacity="1.000000" stroke="none" 
	d="
M1389.441650,1880.229248 
	C1376.476685,1854.866943 1380.815186,1830.905029 1393.536499,1808.025269 
	C1406.175537,1785.293579 1425.976562,1771.573975 1451.357056,1765.593506 
	C1487.775879,1757.012085 1523.989258,1758.170532 1560.103516,1767.133911 
	C1593.858398,1775.511597 1620.390625,1807.672729 1624.728027,1841.843872 
	C1629.392212,1878.587280 1601.764160,1910.318481 1564.320190,1909.983521 
	C1524.343750,1909.625732 1484.360474,1909.727905 1444.382324,1909.971558 
	C1420.770386,1910.115479 1402.538940,1900.828003 1389.441650,1880.229248 
z"/>
</svg>